<?xml version="1.0" standalone="no"?>
<!DOCTYPE svg PUBLIC "-//W3C//DTD SVG 20010904//EN"
 "http://www.w3.org/TR/2001/REC-SVG-20010904/DTD/svg10.dtd">
<svg version="1.0" xmlns="http://www.w3.org/2000/svg"
 width="2000.000000pt" height="2000.000000pt" viewBox="0 0 2000.000000 2000.000000"
 preserveAspectRatio="xMidYMid meet">

<g transform="translate(0.000000,2000.000000) scale(0.100000,-0.100000)"
fill="#000000" stroke="none">
<path d="M7613 12739 c-41 -52 -186 -440 -288 -772 -155 -506 -323 -1252 -430
-1912 -47 -289 -54 -338 -74 -485 -91 -655 -108 -1006 -72 -1505 33 -447 89
-791 177 -1082 45 -149 58 -173 89 -173 24 0 24 0 8 37 -50 120 -123 408 -158
625 -54 336 -68 531 -69 963 0 220 3 458 8 528 l8 128 32 -6 c63 -13 145 -49
324 -140 488 -251 766 -505 894 -819 75 -184 76 -417 2 -1079 -14 -127 -28
-257 -31 -287 -3 -30 -9 -60 -14 -66 -6 -8 1 -11 23 -10 l32 1 17 155 c43 408
51 493 66 735 19 315 12 399 -43 539 -39 97 -98 206 -139 254 -14 17 -25 34
-25 39 0 11 -215 222 -286 280 -68 56 -264 187 -344 230 -36 20 -96 53 -135
74 -38 21 -104 52 -145 69 -41 17 -82 34 -91 39 -8 5 -41 14 -72 21 -55 11
-62 17 -59 55 18 218 113 850 192 1270 10 55 28 152 40 215 11 63 29 153 39
200 11 47 29 130 40 185 49 226 165 684 226 890 40 137 110 343 167 494 28 75
58 154 65 175 8 22 22 51 32 65 10 14 21 33 24 41 3 9 6 10 6 3 1 -8 14 -13
31 -13 37 0 126 -44 235 -115 141 -91 338 -280 505 -483 86 -104 86 -104 203
-72 203 56 537 115 792 141 170 17 684 18 895 1 246 -20 519 -61 760 -116 263
-60 271 -61 281 -43 29 52 299 324 409 413 106 86 212 156 307 203 173 86 176
86 202 8 25 -78 146 -492 205 -702 85 -303 259 -1020 293 -1205 8 -44 44 -233
59 -305 65 -323 134 -832 149 -1095 3 -58 8 -123 11 -145 l5 -40 -108 -34
c-122 -39 -377 -164 -528 -260 -321 -204 -532 -416 -646 -647 -61 -124 -88
-214 -95 -324 -9 -126 17 -508 61 -905 36 -316 37 -321 60 -317 11 2 22 6 24
8 2 2 -3 55 -12 117 -19 125 -62 541 -77 747 -14 184 -12 383 4 455 53 243
239 506 489 688 264 194 625 381 790 411 l37 7 2 -133 c8 -599 -20 -960 -113
-1463 -31 -164 -104 -455 -147 -583 -21 -62 -36 -115 -32 -117 4 -2 16 -2 27
1 42 11 169 487 232 869 60 360 80 631 81 1050 0 483 -35 867 -135 1490 -79
490 -289 1391 -464 1990 -135 465 -163 549 -183 553 -24 5 -177 -65 -287 -131
-169 -102 -461 -359 -588 -519 -25 -32 -48 -58 -50 -58 -2 0 -92 20 -201 44
-363 81 -672 126 -1021 147 -425 26 -1004 -32 -1421 -143 -176 -47 -180 -47
-190 -35 -146 186 -429 470 -552 555 -147 101 -308 164 -335 131z"/>
<path d="M8636 11529 c-320 -37 -616 -176 -848 -398 -114 -109 -176 -184 -245
-296 -276 -448 -286 -1006 -26 -1459 122 -212 264 -364 475 -508 160 -109 380
-191 585 -219 220 -29 487 3 717 85 52 18 99 30 105 27 5 -4 29 -36 52 -71 89
-139 341 -360 472 -415 20 -8 38 -19 42 -25 3 -5 13 -10 21 -10 14 0 127 78
189 130 105 89 250 259 297 350 29 56 54 61 141 26 132 -53 243 -82 360 -97
138 -17 378 -7 487 20 317 79 502 182 721 400 197 198 302 374 379 639 61 211
67 503 13 702 -8 30 -18 69 -23 85 -32 119 -101 263 -195 405 -121 183 -375
401 -576 494 -312 144 -631 178 -944 100 -330 -82 -569 -235 -808 -517 -27
-31 -52 -57 -56 -57 -5 0 -43 40 -84 89 -251 295 -565 466 -950 516 -119 16
-192 17 -301 4z m435 -69 c217 -50 430 -150 589 -275 73 -59 171 -160 244
-253 27 -34 55 -62 62 -62 7 0 34 26 61 58 245 295 530 469 880 539 121 24
414 23 528 -1 267 -58 519 -191 708 -375 78 -76 217 -246 217 -265 0 -2 17
-35 38 -73 164 -292 214 -697 126 -1025 -62 -233 -185 -448 -355 -623 -225
-232 -495 -368 -820 -416 -112 -16 -347 -6 -472 20 -111 24 -302 85 -331 106
-19 14 -19 16 -1 90 14 63 16 87 7 145 -21 141 -111 271 -252 365 -162 108
-405 113 -601 14 -187 -94 -283 -206 -325 -378 -15 -65 -16 -82 -4 -153 11
-67 10 -82 -1 -93 -18 -17 -179 -68 -301 -96 -146 -33 -370 -37 -523 -9 -198
35 -318 78 -471 165 -450 260 -723 752 -701 1265 13 292 103 558 264 781 120
166 325 339 512 434 126 63 314 117 481 139 88 11 349 -3 441 -24z m1062
-2015 c237 -50 418 -300 378 -522 -14 -72 -75 -201 -138 -291 -90 -127 -338
-352 -389 -352 -19 0 -201 116 -259 165 -91 77 -198 189 -233 244 -51 79 -69
127 -81 211 -28 203 78 378 289 481 159 77 284 96 433 64z"/>
<path d="M8640 10949 c-87 -15 -232 -67 -301 -108 -198 -120 -368 -343 -423
-556 -88 -337 1 -636 265 -896 213 -210 537 -297 835 -224 173 41 282 104 423
239 165 160 240 311 271 546 62 461 -301 935 -766 1000 -88 12 -226 11 -304
-1z m-330 -199 c0 -5 -5 -10 -11 -10 -5 0 -7 5 -4 10 3 6 8 10 11 10 2 0 4 -4
4 -10z m-89 -82 c-71 -72 -121 -139 -170 -228 -51 -93 -46 -81 -62 -167 -7
-40 -15 -73 -19 -73 -10 0 -3 -213 9 -290 22 -136 58 -214 170 -369 75 -104
183 -199 271 -238 14 -6 42 -18 62 -27 20 -9 38 -21 40 -28 3 -7 32 -14 71
-16 37 -2 67 -8 67 -13 0 -6 10 -14 23 -19 16 -7 10 -8 -23 -3 -58 8 -181 45
-245 74 -70 31 -175 101 -175 116 0 7 -7 13 -16 13 -9 0 -18 9 -21 20 -3 11
-12 20 -19 20 -8 0 -17 7 -21 16 -3 9 -17 28 -31 43 -24 26 -73 100 -104 157
-74 134 -126 435 -83 478 17 16 20 30 6 21 -12 -7 -5 56 15 125 39 135 153
323 242 399 66 58 74 51 13 -11z m1075 -103 c65 -41 109 -107 119 -180 26
-209 -111 -339 -320 -305 -83 14 -132 50 -173 130 -32 61 -34 70 -30 141 9
162 111 252 279 247 64 -3 83 -8 125 -33z m204 -1019 c0 -2 -8 -10 -17 -17
-16 -13 -17 -12 -4 4 13 16 21 21 21 13z m-121 -129 c-62 -59 -112 -95 -178
-130 -144 -76 -306 -119 -327 -86 -5 8 4 10 29 7 21 -2 33 0 30 6 -4 5 1 7 12
3 9 -4 23 -3 29 2 7 6 34 15 61 21 90 19 248 107 338 186 45 41 84 73 87 73 3
0 -34 -37 -81 -82z"/>
<path d="M11034 10945 c-87 -16 -230 -73 -304 -122 -73 -48 -202 -173 -255
-248 -114 -160 -165 -327 -165 -541 0 -227 78 -425 232 -589 119 -127 235
-204 386 -256 197 -68 429 -64 620 12 98 39 153 71 232 135 231 187 333 384
347 669 13 278 -66 483 -262 680 -195 195 -394 277 -668 274 -51 0 -124 -7
-163 -14z m-5 -355 c126 -36 201 -173 173 -314 -22 -108 -94 -178 -202 -195
-190 -31 -320 76 -320 263 0 109 67 206 166 241 46 17 135 19 183 5z m-651
-380 c-12 -84 -5 -287 13 -371 13 -66 66 -172 126 -256 28 -39 39 -63 31 -63
-29 0 -115 148 -153 263 -43 132 -52 352 -19 481 12 49 13 22 2 -54z m1679 28
c-3 -8 -6 -5 -6 6 -1 11 2 17 5 13 3 -3 4 -12 1 -19z m-7 -421 c-12 -44 -27
-90 -32 -101 -6 -12 -16 -30 -21 -41 -6 -11 -17 -33 -25 -50 -44 -88 -134
-193 -221 -258 -78 -58 -226 -132 -312 -156 -80 -22 -159 -28 -159 -11 0 6 22
10 49 10 27 0 51 4 53 10 2 5 30 17 62 25 120 32 296 134 386 224 123 124 225
336 232 479 1 35 2 35 5 -7 3 -26 -5 -77 -17 -124z m-1469 -324 c13 -16 12
-17 -3 -4 -10 7 -18 15 -18 17 0 8 8 3 21 -13z m169 -163 c0 -5 -5 -10 -11
-10 -5 0 -7 5 -4 10 3 6 8 10 11 10 2 0 4 -4 4 -10z m125 -49 c28 -12 58 -26
67 -31 10 -6 27 -10 38 -10 11 0 20 -5 20 -11 0 -6 6 -9 14 -6 8 3 17 3 20 -1
4 -3 12 -7 19 -9 7 -1 28 -7 47 -12 32 -10 32 -10 -13 -5 -105 12 -314 90
-314 118 0 10 5 10 26 0 14 -6 49 -22 76 -33z"/>
<path d="M10760 8024 c-20 -51 4 -194 44 -273 24 -45 76 -89 146 -123 59 -30
73 -32 160 -32 113 0 162 19 233 88 74 72 89 111 91 240 1 105 0 111 -19 111
-15 0 -25 -14 -41 -60 -59 -173 -129 -234 -265 -235 -129 0 -212 49 -263 155
-19 39 -37 84 -41 102 -3 17 -13 37 -20 43 -12 10 -17 7 -25 -16z m613 -201
c-11 -65 -36 -99 -109 -150 -39 -27 -144 -47 -204 -38 -60 9 -138 46 -174 84
l-30 31 26 0 c15 0 50 -12 80 -27 44 -23 66 -27 133 -28 110 0 186 36 241 117
32 45 43 48 37 11z"/>
<path d="M8487 7994 c-16 -16 -7 -166 14 -229 40 -125 158 -213 299 -223 147
-10 249 45 335 182 26 43 36 260 11 269 -20 8 -37 -23 -61 -110 -13 -46 -29
-74 -64 -111 -56 -61 -110 -83 -200 -83 -79 1 -133 18 -184 61 -43 36 -61 68
-96 169 -25 71 -39 90 -54 75z m614 -236 c-13 -40 -62 -94 -120 -133 -43 -29
-49 -30 -155 -30 -104 0 -114 2 -159 29 -32 19 -46 33 -43 43 3 8 2 12 -2 9
-14 -8 -45 23 -48 50 -2 26 -2 26 19 7 79 -69 176 -100 271 -88 72 10 122 39
186 106 57 60 69 62 51 7z"/>
<path d="M9600 7775 c-15 -18 -6 -179 12 -223 58 -139 178 -216 338 -215 108
1 163 23 235 97 65 68 83 118 87 246 3 89 2 95 -17 95 -22 0 -36 -25 -60 -104
-20 -66 -75 -135 -128 -162 -21 -11 -69 -23 -107 -26 -150 -13 -257 67 -310
230 -24 74 -32 84 -50 62z m612 -213 c-10 -42 -67 -122 -88 -122 -6 0 -14 -6
-17 -14 -9 -23 -126 -56 -177 -50 -55 6 -137 32 -146 45 -3 6 -17 14 -31 20
-13 5 -22 13 -18 19 6 9 -8 38 -35 75 -11 15 -8 14 12 -4 15 -13 25 -28 21
-34 -3 -6 -1 -7 5 -3 6 4 30 -6 53 -21 39 -26 50 -28 138 -28 80 1 103 4 139
23 43 23 142 117 142 136 0 5 2 7 5 4 3 -3 2 -23 -3 -46z"/>
<path d="M10207 7083 c-13 -12 -7 -148 8 -197 46 -151 174 -240 345 -239 98 0
147 18 219 79 65 56 93 126 98 244 2 52 0 101 -5 109 -17 24 -39 5 -51 -46
-24 -95 -105 -203 -169 -224 -20 -7 -73 -12 -118 -11 -122 1 -178 35 -244 148
-16 28 -33 67 -36 85 -10 48 -29 70 -47 52z m608 -199 c-10 -72 -54 -127 -138
-170 -63 -33 -160 -35 -232 -7 -63 25 -130 70 -113 76 9 3 7 11 -8 28 -35 40
-39 68 -5 32 16 -17 51 -44 77 -59 43 -26 57 -28 144 -29 119 0 152 15 223
101 29 34 53 63 54 63 1 1 0 -15 -2 -35z"/>
<path d="M8957 7013 c-21 -20 2 -193 33 -258 69 -142 265 -220 426 -169 43 13
71 31 114 73 76 74 90 105 102 222 12 112 8 132 -24 127 -23 -3 -25 -7 -48
-96 -13 -50 -81 -138 -130 -166 -47 -28 -189 -34 -243 -11 -82 34 -160 133
-182 230 -10 45 -31 66 -48 48z m614 -221 c-7 -25 -29 -58 -60 -89 -104 -106
-248 -119 -381 -35 -19 12 -38 22 -42 22 -5 0 -8 5 -8 11 0 5 5 7 10 4 6 -3
10 -2 10 4 0 5 -5 13 -10 16 -6 3 -18 21 -27 38 l-16 32 39 -37 c56 -55 98
-72 187 -76 119 -6 159 9 237 89 36 36 66 65 68 64 2 -2 -1 -21 -7 -43z"/>
<path d="M5383 5328 c-2 -5 -65 -8 -139 -8 l-134 0 0 -185 0 -185 1839 0
c1011 0 1866 -3 1900 -6 l61 -7 0 -98 0 -99 1000 0 999 0 3 103 3 102 1805 5
1805 5 3 181 2 181 -67 6 c-38 4 -924 7 -1970 7 -1715 0 -1903 -2 -1917 -16
-12 -11 -16 -36 -16 -90 l0 -74 -688 0 -688 0 4 85 c3 47 3 86 1 87 -11 7
-3802 12 -3806 6z"/>
</g>
</svg>
