<?xml version="1.0" standalone="no"?>
<!DOCTYPE svg PUBLIC "-//W3C//DTD SVG 20010904//EN"
 "http://www.w3.org/TR/2001/REC-SVG-20010904/DTD/svg10.dtd">
<svg version="1.0" xmlns="http://www.w3.org/2000/svg"
 width="1280.000000pt" height="1280.000000pt" viewBox="0 0 1280.000000 1280.000000"
 preserveAspectRatio="xMidYMid meet">
<metadata>
Created by potrace 1.15, written by Peter Selinger 2001-2017
</metadata>
<g transform="translate(0.000000,1280.000000) scale(0.100000,-0.100000)"
fill="#01A9DB" stroke="none">
<path d="M5985 10884 c-22 -2 -92 -9 -155 -15 -217 -20 -464 -76 -718 -163
-87 -30 -166 -56 -177 -60 -11 -3 12 9 50 28 91 44 257 100 420 142 72 19 110
31 85 28 -64 -9 -289 -68 -390 -102 -343 -118 -626 -280 -871 -498 -164 -146
-446 -458 -592 -654 -109 -146 -112 -140 -11 18 30 45 52 82 50 82 -9 0 -141
-186 -221 -310 -102 -160 -270 -491 -344 -680 -132 -335 -229 -690 -291 -1070
-11 -69 -19 -134 -19 -145 l1 -20 5 20 c2 11 16 82 30 158 14 75 28 135 30
133 3 -2 -9 -102 -26 -223 -53 -379 -71 -650 -71 -1053 0 -403 14 -624 66
-1050 30 -242 61 -409 114 -615 122 -474 316 -914 570 -1298 43 -64 73 -115
67 -111 -7 3 2 -6 18 -21 17 -14 23 -23 15 -19 -40 21 177 -242 330 -400 514
-529 1093 -826 1800 -921 162 -22 545 -31 722 -16 1008 85 1803 589 2380 1509
377 599 603 1330 684 2202 21 235 30 832 15 1075 -30 498 -90 875 -206 1300
-308 1127 -975 2024 -1821 2448 -396 199 -794 292 -1284 301 -118 2 -233 2
-255 0z m432 -949 c313 -51 575 -210 784 -476 35 -43 67 -79 71 -79 5 0 6 -5
3 -10 -3 -6 1 -13 9 -16 38 -14 203 -320 296 -544 152 -371 289 -937 339
-1400 64 -591 58 -1385 -15 -1960 -18 -143 -63 -412 -69 -419 -8 -7 -5 29 10
134 8 55 14 114 13 130 -1 26 -1 27 -5 5 -40 -249 -69 -399 -114 -575 -111
-441 -275 -821 -481 -1115 l-60 -85 53 50 c44 42 49 45 33 18 -35 -57 -146
-193 -194 -236 -57 -52 -244 -169 -368 -231 -98 -49 -204 -88 -305 -111 l-62
-14 55 5 c30 4 95 17 145 29 49 13 91 22 93 21 6 -7 -108 -47 -173 -61 -101
-22 -330 -30 -455 -16 -333 36 -598 165 -831 406 -157 161 -262 317 -385 570
-241 495 -374 1097 -424 1915 -13 215 -13 863 0 1083 50 839 192 1468 450
1992 162 330 335 560 551 731 172 137 390 233 595 263 99 14 341 12 441 -4z
m-3540 -2137 c-3 -8 -6 -5 -6 6 -1 11 2 17 5 13 3 -3 4 -12 1 -19z"/>
<path d="M7882 5520 c0 -14 2 -19 5 -12 2 6 2 18 0 25 -3 6 -5 1 -5 -13z"/>
<path d="M7873 5435 c0 -22 2 -30 4 -17 2 12 2 30 0 40 -3 9 -5 -1 -4 -23z"/>
<path d="M7862 5355 c0 -16 2 -22 5 -12 2 9 2 23 0 30 -3 6 -5 -1 -5 -18z"/>
<path d="M5558 10853 c6 -2 18 -2 25 0 6 3 1 5 -13 5 -14 0 -19 -2 -12 -5z"/>
<path d="M2792 7430 c0 -14 2 -19 5 -12 2 6 2 18 0 25 -3 6 -5 1 -5 -13z"/>
<path d="M2782 7350 c0 -19 2 -27 5 -17 2 9 2 25 0 35 -3 9 -5 1 -5 -18z"/>
<path d="M2771 7274 c0 -11 3 -14 6 -6 3 7 2 16 -1 19 -3 4 -6 -2 -5 -13z"/>
</g>
</svg>
