<?xml version="1.0" standalone="no"?>
<!DOCTYPE svg PUBLIC "-//W3C//DTD SVG 20010904//EN"
 "http://www.w3.org/TR/2001/REC-SVG-20010904/DTD/svg10.dtd">
<svg version="1.0" xmlns="http://www.w3.org/2000/svg" fill="blue
"
 width="474.000000pt" height="315.000000pt" viewBox="0 0 474.000000 315.000000"
 preserveAspectRatio="xMidYMid meet">
<metadata>
Created by potrace 1.16, written by Peter Selinger 2001-2019
</metadata>
<g transform="translate(0.000000,315.000000) scale(0.100000,-0.100000)"
fill="#000000" stroke="none">
<path d="M1806 3130 c3 -14 7 -37 8 -52 0 -14 4 -24 9 -21 12 7 7 46 -9 73
l-15 25 7 -25z"/>
<path d="M2491 3140 c1 -8 5 -26 9 -40 l8 -25 1 25 c0 14 -4 32 -9 40 -9 13
-10 13 -9 0z"/>
<path d="M1649 3104 c17 -13 21 -22 16 -43 -4 -19 -3 -22 5 -11 15 24 12 48
-9 60 -30 16 -38 12 -12 -6z"/>
<path d="M355 3006 c0 -68 1 -71 13 -43 6 16 12 44 12 62 0 18 -6 37 -12 43
-10 8 -13 -5 -13 -62z"/>
<path d="M1730 2998 c12 -21 18 -43 14 -49 -4 -8 -3 -9 4 -5 19 11 14 33 -14
63 l-26 28 22 -37z"/>
<path d="M2496 2966 c21 -15 30 -14 19 3 -3 6 -14 11 -23 11 -13 0 -13 -2 4
-14z"/>
<path d="M3966 2942 c-3 -5 11 -9 31 -8 29 1 40 -4 49 -22 17 -34 27 -40 19
-12 -4 14 -14 31 -23 38 -18 14 -68 16 -76 4z"/>
<path d="M665 2916 c13 -20 14 -32 6 -62 -12 -45 -6 -59 9 -20 14 37 13 79 -2
94 -21 21 -29 13 -13 -12z"/>
<path d="M2240 2930 c-11 -8 -9 -9 11 -5 29 7 46 -8 59 -52 l8 -28 1 31 c1 49
-42 78 -79 54z"/>
<path d="M3538 2890 c24 -20 24 -19 6 -105 -2 -11 3 -6 11 10 8 17 14 42 15
56 0 25 -27 59 -46 59 -5 -1 2 -9 14 -20z"/>
<path d="M170 2805 c0 -5 5 -17 10 -25 5 -8 10 -10 10 -5 0 6 -5 17 -10 25 -5
8 -10 11 -10 5z"/>
<path d="M386 2763 c21 -41 18 -96 -6 -118 -11 -10 -18 -21 -15 -23 3 -3 16 5
30 18 19 18 25 34 25 67 0 50 -14 83 -35 83 -12 0 -12 -4 1 -27z"/>
<path d="M853 2748 c12 -13 24 -19 25 -15 5 11 -18 37 -34 37 -9 0 -5 -8 9
-22z"/>
<path d="M2182 2710 c0 -14 2 -19 5 -12 2 6 2 18 0 25 -3 6 -5 1 -5 -13z"/>
<path d="M1648 2695 c2 -14 6 -25 8 -25 2 0 4 11 4 25 0 14 -4 25 -9 25 -4 0
-6 -11 -3 -25z"/>
<path d="M660 2685 c0 -4 14 -18 30 -32 17 -13 30 -32 31 -41 0 -11 2 -13 6
-4 6 16 -21 58 -47 72 -11 6 -20 8 -20 5z"/>
<path d="M41 2643 c7 -10 15 -20 16 -22 2 -2 3 3 3 11 0 9 -7 19 -16 22 -15 6
-15 4 -3 -11z"/>
<path d="M4620 2636 c0 -2 11 -6 25 -8 13 -3 22 -1 19 3 -5 9 -44 13 -44 5z"/>
<path d="M2014 2551 c1 -27 4 -47 9 -44 10 6 9 81 -1 87 -5 3 -9 -17 -8 -43z"/>
<path d="M2335 2590 c-3 -5 3 -10 14 -10 34 0 53 -12 67 -44 12 -27 13 -28 14
-8 0 44 -75 94 -95 62z"/>
<path d="M896 2577 c3 -10 9 -15 12 -12 3 3 0 11 -7 18 -10 9 -11 8 -5 -6z"/>
<path d="M1620 2556 c0 -2 8 -10 18 -17 15 -13 16 -12 3 4 -13 16 -21 21 -21
13z"/>
<path d="M1313 2515 c9 -9 17 -28 18 -43 0 -24 1 -25 8 -7 11 27 -2 59 -24 64
-17 3 -18 2 -2 -14z"/>
<path d="M1643 2503 c-7 -12 -13 -38 -13 -58 0 -90 -68 -132 -133 -82 -24 18
-34 21 -34 11 0 -8 2 -12 5 -9 3 2 16 -5 30 -15 77 -61 170 17 160 135 -3 38
-4 39 -15 18z"/>
<path d="M4066 2507 c-15 -11 -12 -12 23 -9 38 4 42 2 56 -29 12 -28 14 -30
15 -11 0 26 -33 62 -58 62 -10 0 -26 -6 -36 -13z"/>
<path d="M360 2462 c0 -4 9 -13 20 -20 23 -14 26 -51 8 -72 -7 -8 -3 -6 10 4
27 24 28 50 2 76 -20 20 -40 26 -40 12z"/>
<path d="M4475 2460 c3 -5 14 -10 23 -10 15 0 15 2 2 10 -20 13 -33 13 -25 0z"/>
<path d="M199 2393 c12 -18 24 -33 27 -33 9 0 -15 37 -33 51 -12 10 -11 5 6
-18z"/>
<path d="M745 2403 c11 -10 15 -28 13 -49 -2 -18 0 -30 4 -28 23 14 2 94 -25
94 -5 0 -1 -7 8 -17z"/>
<path d="M1740 2394 c8 -4 21 -14 28 -23 13 -14 13 -14 10 4 -2 13 -12 21 -28
22 -14 1 -18 0 -10 -3z"/>
<path d="M3120 2359 c0 -6 8 -9 18 -7 25 5 62 -49 62 -91 0 -26 3 -32 11 -24
17 17 2 81 -26 109 -25 24 -65 33 -65 13z"/>
<path d="M3470 2366 c0 -2 7 -7 16 -10 8 -3 12 -2 9 4 -6 10 -25 14 -25 6z"/>
<path d="M4361 2355 c0 -5 6 -19 14 -29 8 -11 15 -15 15 -10 0 6 -7 19 -15 30
-8 10 -14 15 -14 9z"/>
<path d="M2526 2271 c15 -16 84 -42 84 -32 0 5 -18 16 -40 25 -46 18 -58 20
-44 7z"/>
<path d="M2145 2220 c-3 -6 1 -7 9 -4 18 7 21 14 7 14 -6 0 -13 -4 -16 -10z"/>
<path d="M2181 2225 c1 -19 18 -51 18 -35 0 8 -4 22 -9 30 -5 8 -9 11 -9 5z"/>
<path d="M2940 2226 c0 -2 7 -7 16 -10 8 -3 12 -2 9 4 -6 10 -25 14 -25 6z"/>
<path d="M1000 2216 c0 -2 7 -9 15 -16 13 -11 14 -10 9 4 -5 14 -24 23 -24 12z"/>
<path d="M750 2206 c0 -2 14 -30 30 -61 21 -41 30 -50 30 -34 0 13 -12 40 -26
61 -25 35 -34 44 -34 34z"/>
<path d="M1520 2200 c0 -5 4 -10 8 -10 11 0 32 -45 32 -66 0 -9 -10 -30 -22
-47 l-22 -32 23 20 c36 31 44 52 32 88 -11 31 -51 68 -51 47z"/>
<path d="M1063 2136 c12 -14 24 -23 26 -20 5 5 -30 44 -40 44 -4 0 2 -11 14
-24z"/>
<path d="M3147 2148 c4 -7 13 -29 19 -48 l12 -35 1 32 c1 17 -6 39 -15 47 -19
19 -28 21 -17 4z"/>
<path d="M1243 2105 c0 -22 2 -30 4 -17 2 12 2 30 0 40 -3 9 -5 -1 -4 -23z"/>
<path d="M4043 2108 c29 -8 41 -18 52 -44 18 -42 27 -44 15 -3 -14 46 -29 59
-69 58 l-36 -1 38 -10z"/>
<path d="M215 2071 c4 -7 11 -33 15 -59 l8 -47 -1 54 c-1 36 -7 56 -16 59 -9
3 -11 0 -6 -7z"/>
<path d="M2574 2003 c27 -7 45 -27 58 -63 14 -42 20 -33 7 13 -10 38 -34 58
-66 56 -16 -1 -16 -2 1 -6z"/>
<path d="M910 1969 c-13 -9 -13 -10 0 -6 28 8 50 -12 51 -46 0 -30 1 -31 11
-9 23 46 -21 90 -62 61z"/>
<path d="M1603 1968 c9 -7 21 -24 26 -38 7 -18 10 -20 10 -7 1 28 -18 57 -36
57 -16 0 -16 -1 0 -12z"/>
<path d="M2119 1959 c-11 -7 -10 -9 7 -9 11 0 25 -5 32 -12 9 -9 12 -9 12 0 0
17 -34 32 -51 21z"/>
<path d="M3128 1943 c7 -3 16 -2 19 1 4 3 -2 6 -13 5 -11 0 -14 -3 -6 -6z"/>
<path d="M490 1930 c0 -5 5 -10 10 -10 6 0 10 5 10 10 0 6 -4 10 -10 10 -5 0
-10 -4 -10 -10z"/>
<path d="M1403 1902 c28 -29 35 -42 30 -61 -4 -17 -3 -22 5 -17 23 14 13 57
-20 87 -47 42 -59 36 -15 -9z"/>
<path d="M536 1893 c9 -38 14 -42 14 -10 0 14 -5 29 -10 32 -7 4 -8 -3 -4 -22z"/>
<path d="M2805 1910 c27 -12 43 -12 25 0 -8 5 -22 9 -30 9 -10 0 -8 -3 5 -9z"/>
<path d="M792 1820 c14 -43 18 -49 18 -24 0 11 -7 29 -15 40 -13 17 -14 16 -3
-16z"/>
<path d="M1010 1819 c-12 -9 -12 -10 4 -5 10 4 25 1 34 -6 13 -11 14 -10 10 2
-6 19 -29 23 -48 9z"/>
<path d="M650 1816 c0 -2 7 -9 15 -16 13 -11 14 -10 9 4 -5 14 -24 23 -24 12z"/>
<path d="M1567 1808 c6 -7 13 -20 16 -28 4 -10 6 -8 6 6 1 12 -6 25 -15 28
-13 5 -14 3 -7 -6z"/>
<path d="M2130 1806 c0 -2 7 -7 16 -10 8 -3 12 -2 9 4 -6 10 -25 14 -25 6z"/>
<path d="M870 1765 c0 -2 11 -15 25 -29 30 -30 34 -19 5 12 -20 21 -30 27 -30
17z"/>
<path d="M2364 1750 c0 -10 12 -25 26 -32 14 -6 35 -21 48 -32 12 -11 22 -15
22 -10 -1 14 -42 59 -70 77 -24 16 -26 15 -26 -3z"/>
<path d="M4110 1740 c-11 -7 -6 -10 20 -10 26 0 31 3 20 10 -8 5 -17 10 -20
10 -3 0 -12 -5 -20 -10z"/>
<path d="M4407 1743 c-3 -5 10 -8 29 -9 19 0 34 3 34 8 0 10 -57 11 -63 1z"/>
<path d="M441 1722 c6 -10 21 -23 32 -28 12 -5 29 -23 39 -40 16 -27 17 -36 6
-59 -6 -14 -23 -33 -37 -40 -18 -10 -21 -14 -9 -15 26 0 78 58 78 88 0 33 -49
105 -66 98 -8 -3 -16 -1 -19 4 -4 6 -13 10 -21 10 -11 0 -12 -4 -3 -18z"/>
<path d="M2725 1700 c-10 -11 -13 -20 -8 -20 13 0 38 29 31 35 -3 3 -13 -4
-23 -15z"/>
<path d="M677 1656 c10 -13 19 -23 21 -21 7 6 -19 45 -29 45 -5 0 -2 -11 8
-24z"/>
<path d="M1240 1650 c-10 -6 -5 -9 19 -8 37 1 53 -16 45 -47 -4 -16 -3 -17 5
-5 31 44 -22 90 -69 60z"/>
<path d="M2819 1628 c-17 -24 -18 -29 -6 -19 18 14 42 51 33 51 -3 0 -15 -15
-27 -32z"/>
<path d="M3108 1633 c7 -3 16 -2 19 1 4 3 -2 6 -13 5 -11 0 -14 -3 -6 -6z"/>
<path d="M780 1595 c0 -3 9 -14 20 -25 13 -13 20 -15 20 -7 0 7 -5 18 -12 25
-12 12 -28 16 -28 7z"/>
<path d="M1104 1574 c-18 -15 -18 -15 4 -11 12 3 22 1 22 -4 0 -5 6 -9 13 -9
15 0 37 -41 37 -68 0 -13 2 -14 9 -3 17 26 -10 80 -50 102 -11 5 -23 3 -35 -7z"/>
<path d="M3030 1561 c0 -5 5 -13 10 -16 6 -3 10 -2 10 4 0 5 -4 13 -10 16 -5
3 -10 2 -10 -4z"/>
<path d="M3253 1533 c9 -2 25 -2 35 0 9 3 1 5 -18 5 -19 0 -27 -2 -17 -5z"/>
<path d="M3640 1531 c0 -5 18 -11 40 -13 43 -4 54 6 18 16 -33 8 -58 7 -58 -3z"/>
<path d="M4538 1533 c7 -3 16 -2 19 1 4 3 -2 6 -13 5 -11 0 -14 -3 -6 -6z"/>
<path d="M25 1521 c-3 -6 2 -11 13 -11 22 0 38 -16 44 -45 3 -17 5 -17 10 -4
15 37 -47 92 -67 60z"/>
<path d="M2074 1509 c-4 -7 0 -9 12 -5 24 7 40 -3 53 -34 9 -24 10 -24 10 -3
2 40 -56 72 -75 42z"/>
<path d="M2730 1467 c14 -8 27 -12 30 -10 7 6 -23 23 -40 23 -8 0 -4 -6 10
-13z"/>
<path d="M1469 1457 c26 -13 46 -66 38 -99 -3 -10 -1 -16 4 -12 12 7 12 66 -1
98 -7 19 -17 26 -37 26 l-28 0 24 -13z"/>
<path d="M2298 1459 c-27 -15 -21 -26 12 -21 17 2 30 10 30 18 0 16 -18 18
-42 3z"/>
<path d="M2353 1458 c1 -7 10 -19 20 -26 19 -15 22 -53 7 -83 -6 -10 -8 -19
-5 -19 3 0 12 14 19 32 20 46 -1 107 -36 108 -5 0 -7 -6 -5 -12z"/>
<path d="M1770 1419 c-10 -18 -10 -19 7 -10 30 15 47 -2 40 -40 l-6 -34 17 34
c16 32 16 34 -7 52 -30 24 -38 24 -51 -2z"/>
<path d="M1977 1406 c10 -13 19 -23 21 -21 7 6 -19 45 -29 45 -5 0 -2 -11 8
-24z"/>
<path d="M900 1395 c-25 -14 -25 -14 -2 -15 12 0 22 5 22 10 0 6 5 10 11 10 5
0 7 -4 4 -10 -3 -5 10 -16 30 -24 44 -19 53 -40 29 -69 l-19 -21 25 16 c37 23
36 44 -3 83 -38 38 -58 42 -97 20z"/>
<path d="M1290 1370 c0 -5 9 -14 20 -20 14 -8 20 -22 21 -48 1 -33 2 -34 9
-12 13 39 11 49 -10 70 -21 21 -40 26 -40 10z"/>
<path d="M1613 1373 c-7 -2 -13 -9 -13 -14 0 -4 6 -6 14 -3 8 3 24 1 35 -6 13
-7 21 -7 21 -1 0 9 -33 32 -42 30 -2 0 -9 -3 -15 -6z"/>
<path d="M4660 1370 c0 -5 7 -10 16 -10 8 0 12 5 9 10 -3 6 -10 10 -16 10 -5
0 -9 -4 -9 -10z"/>
<path d="M2130 1356 c0 -2 7 -7 16 -10 8 -3 12 -2 9 4 -6 10 -25 14 -25 6z"/>
<path d="M720 1325 c7 -9 15 -13 17 -11 7 7 -7 26 -19 26 -6 0 -6 -6 2 -15z"/>
<path d="M574 1313 c2 -10 13 -19 24 -21 26 -4 37 -38 28 -85 -5 -30 -5 -31 9
-13 18 24 20 86 3 109 -7 9 -25 19 -40 22 -22 6 -26 4 -24 -12z"/>
<path d="M540 1310 c0 -5 5 -10 10 -10 6 0 10 5 10 10 0 6 -4 10 -10 10 -5 0
-10 -4 -10 -10z"/>
<path d="M1410 1310 c0 -5 5 -10 11 -10 5 0 7 5 4 10 -3 6 -8 10 -11 10 -2 0
-4 -4 -4 -10z"/>
<path d="M2678 1282 c20 -22 25 -21 16 2 -3 9 -12 16 -20 16 -11 0 -10 -4 4
-18z"/>
<path d="M322 1268 c2 -6 10 -14 16 -16 7 -2 10 2 6 12 -7 18 -28 22 -22 4z"/>
<path d="M2571 1255 c1 -19 18 -51 18 -35 0 8 -4 22 -9 30 -5 8 -9 11 -9 5z"/>
<path d="M2884 1245 c11 -8 27 -15 37 -15 9 0 24 -15 33 -32 16 -33 16 -33 16
-6 0 32 -41 68 -79 68 -25 -1 -25 -1 -7 -15z"/>
<path d="M3070 1236 c0 -2 7 -7 16 -10 8 -3 12 -2 9 4 -6 10 -25 14 -25 6z"/>
<path d="M793 1213 c-18 -7 -16 -23 2 -23 8 0 15 6 15 13 0 6 5 4 11 -5 5 -10
16 -18 24 -18 20 0 38 -37 32 -67 -3 -17 -1 -21 6 -14 6 6 11 27 11 47 0 55
-50 88 -101 67z"/>
<path d="M1560 1213 c0 -4 5 -15 10 -23 8 -13 10 -13 10 2 0 9 -4 20 -10 23
-5 3 -10 3 -10 -2z"/>
<path d="M2364 1208 c-5 -8 0 -9 14 -6 16 5 28 -1 42 -19 21 -27 27 -15 10 18
-12 21 -55 26 -66 7z"/>
<path d="M3204 1209 c-5 -9 -1 -10 15 -6 17 4 25 0 32 -16 8 -21 9 -21 6 3 -2
27 -39 41 -53 19z"/>
<path d="M1110 1184 c-24 -15 -24 -15 -2 -10 15 3 30 -3 42 -17 16 -17 20 -18
20 -5 0 13 -25 49 -33 48 -1 -1 -13 -8 -27 -16z"/>
<path d="M4125 1160 c-3 -5 1 -10 9 -10 9 0 16 5 16 10 0 6 -4 10 -9 10 -6 0
-13 -4 -16 -10z"/>
<path d="M1370 1140 c0 -5 4 -10 9 -10 5 0 13 -9 16 -21 4 -11 9 -19 11 -16 8
7 -15 57 -26 57 -5 0 -10 -4 -10 -10z"/>
<path d="M531 1137 c2 -1 12 -9 22 -16 15 -12 17 -12 11 3 -3 9 -13 16 -22 16
-8 0 -13 -1 -11 -3z"/>
<path d="M1690 1115 c7 -9 15 -13 17 -11 7 7 -7 26 -19 26 -6 0 -6 -6 2 -15z"/>
<path d="M731 1091 c13 -11 26 -17 29 -14 6 6 -30 33 -43 33 -5 0 1 -9 14 -19z"/>
<path d="M323 1073 c-7 -2 -13 -10 -13 -15 0 -6 3 -8 6 -5 14 13 44 -15 44
-41 1 -23 2 -25 11 -9 7 12 6 25 -3 44 -14 28 -25 35 -45 26z"/>
<path d="M3330 1050 c-13 -9 -12 -12 5 -26 11 -8 30 -13 43 -11 13 3 22 -1 22
-8 0 -7 7 -15 15 -19 21 -8 19 -52 -5 -76 -11 -11 -16 -20 -11 -20 17 0 51 52
51 79 0 34 -8 44 -50 70 -39 24 -49 25 -70 11z"/>
<path d="M595 1040 c3 -5 11 -10 16 -10 6 0 7 5 4 10 -3 6 -11 10 -16 10 -6 0
-7 -4 -4 -10z"/>
<path d="M2185 1037 c-17 -13 -17 -14 9 -21 15 -4 30 -5 34 -2 4 2 23 -8 42
-24 32 -26 33 -30 22 -56 -12 -24 -11 -26 2 -15 37 31 27 80 -22 105 -47 23
-67 27 -87 13z"/>
<path d="M123 1033 c4 -3 2 -12 -4 -19 -8 -10 -3 -15 22 -21 18 -5 42 -21 53
-36 17 -23 18 -31 8 -47 -7 -11 -9 -20 -4 -20 15 0 32 24 32 45 0 30 -67 105
-92 105 -12 0 -18 -3 -15 -7z"/>
<path d="M2891 1030 c-9 -5 -10 -10 -2 -14 6 -4 16 -4 21 -1 6 4 18 1 27 -7
14 -11 16 -11 12 1 -6 18 -42 31 -58 21z"/>
<path d="M1010 1006 c0 -2 7 -7 16 -10 8 -3 12 -2 9 4 -6 10 -25 14 -25 6z"/>
<path d="M803 993 c-7 -2 -13 -9 -13 -15 0 -7 4 -7 13 0 9 8 20 7 40 -3 15 -8
27 -10 27 -5 0 19 -42 34 -67 23z"/>
<path d="M1870 988 c-20 -7 -22 -11 -10 -18 9 -6 19 -5 24 0 13 13 29 13 21 0
-3 -5 4 -19 15 -30 13 -13 19 -28 15 -38 -5 -13 -4 -14 6 -5 10 10 9 21 -6 52
-20 46 -30 52 -65 39z"/>
<path d="M3302 980 c0 -14 2 -19 5 -12 2 6 2 18 0 25 -3 6 -5 1 -5 -13z"/>
<path d="M1151 985 c0 -5 6 -19 14 -29 8 -11 15 -15 15 -10 0 6 -7 19 -15 30
-8 10 -14 15 -14 9z"/>
<path d="M4445 930 c-3 -5 -1 -10 4 -10 6 0 11 5 11 10 0 6 -2 10 -4 10 -3 0
-8 -4 -11 -10z"/>
<path d="M1580 916 c0 -2 9 -6 20 -9 11 -3 18 -1 14 4 -5 9 -34 13 -34 5z"/>
<path d="M706 886 c21 -15 30 -14 19 3 -3 6 -14 11 -23 11 -13 0 -13 -2 4 -14z"/>
<path d="M67 883 c-3 -4 6 -16 19 -26 13 -10 24 -14 24 -9 0 14 -37 44 -43 35z"/>
<path d="M849 864 c-12 -16 -12 -17 3 -11 22 8 51 -20 43 -42 -5 -13 -4 -14 6
-4 9 9 10 21 3 40 -11 33 -36 40 -55 17z"/>
<path d="M1009 861 c13 -12 28 -21 35 -21 12 0 -5 14 -39 31 -16 8 -15 6 4
-10z"/>
<path d="M1480 869 c-13 -9 -13 -10 1 -6 9 3 22 0 29 -6 10 -9 12 -9 8 2 -6
20 -20 23 -38 10z"/>
<path d="M2770 870 c-12 -8 -11 -10 8 -10 12 0 22 -5 22 -11 0 -5 5 -7 10 -4
8 5 7 11 -1 21 -13 16 -19 17 -39 4z"/>
<path d="M746 837 c-18 -13 -17 -14 14 -15 17 0 34 -2 36 -5 2 -2 -1 -19 -6
-38 -9 -32 -8 -33 6 -14 21 28 15 79 -11 83 -11 1 -29 -3 -39 -11z"/>
<path d="M2905 840 c27 -12 43 -12 25 0 -8 5 -22 9 -30 9 -10 0 -8 -3 5 -9z"/>
<path d="M2688 833 c7 -3 16 -2 19 1 4 3 -2 6 -13 5 -11 0 -14 -3 -6 -6z"/>
<path d="M4127 784 c-10 -10 -9 -26 1 -20 5 3 31 -2 58 -10 48 -14 49 -14 29
5 -22 21 -77 36 -88 25z"/>
<path d="M1418 770 c12 -5 22 -15 22 -21 0 -7 3 -9 6 -6 10 10 -16 37 -35 36
-11 0 -9 -3 7 -9z"/>
<path d="M2623 773 c-13 -2 -23 -9 -23 -14 0 -12 47 -11 55 1 4 7 14 2 26 -11
15 -18 19 -19 19 -6 0 16 -30 38 -47 36 -4 -1 -18 -4 -30 -6z"/>
<path d="M4508 753 c-27 -32 -34 -50 -11 -30 11 9 29 17 41 17 26 0 29 15 6
24 -21 8 -19 9 -36 -11z"/>
<path d="M205 740 c10 -11 20 -20 22 -20 2 0 -1 9 -7 20 -6 11 -16 20 -22 20
-6 0 -3 -9 7 -20z"/>
<path d="M2135 749 c-4 -6 0 -9 11 -7 13 2 19 -3 17 -16 -1 -13 2 -15 10 -7 7
7 6 15 -3 26 -15 18 -26 19 -35 4z"/>
<path d="M1290 741 c0 -5 14 -15 30 -23 27 -11 30 -18 31 -58 l1 -45 9 45 c7
34 5 49 -6 67 -15 22 -43 34 -30 13 3 -5 1 -10 -4 -10 -6 0 -11 5 -11 10 0 6
-4 10 -10 10 -5 0 -10 -4 -10 -9z"/>
<path d="M3966 742 c-3 -4 0 -28 5 -52 5 -24 8 -49 5 -56 -3 -7 2 -18 10 -25
10 -8 14 -25 12 -44 -3 -25 1 -34 19 -42 21 -10 34 -1 15 11 -5 3 -7 19 -4 36
3 19 -6 60 -23 105 -28 77 -30 81 -39 67z"/>
<path d="M820 731 c0 -6 4 -13 10 -16 6 -3 7 1 4 9 -7 18 -14 21 -14 7z"/>
<path d="M3095 720 c-4 -6 9 -10 32 -10 22 0 44 -5 51 -12 7 -7 12 -8 12 -2 0
29 -79 49 -95 24z"/>
<path d="M340 712 c0 -5 7 -13 16 -16 10 -4 14 -1 12 6 -5 15 -28 23 -28 10z"/>
<path d="M2228 709 c-31 -18 -21 -32 18 -26 20 3 34 3 30 0 -3 -3 2 -12 11
-18 15 -11 15 -17 5 -40 -17 -37 -7 -45 10 -8 18 36 12 69 -15 88 -25 17 -35
18 -59 4z"/>
<path d="M3910 710 c-18 -11 -6 -35 29 -58 22 -15 22 -15 19 24 -3 41 -20 53
-48 34z"/>
<path d="M30 694 c0 -8 -7 -14 -15 -14 -8 0 -15 -4 -15 -8 0 -4 16 -6 35 -4
22 3 45 -2 60 -12 20 -13 25 -14 25 -2 0 15 -34 40 -67 48 -16 4 -23 2 -23 -8z"/>
<path d="M1633 703 c-7 -3 -13 -9 -13 -14 0 -6 6 -9 13 -8 25 3 36 -2 40 -18
4 -14 5 -13 6 4 1 23 -25 43 -46 36z"/>
<path d="M3646 679 c-39 -46 -32 -64 9 -23 20 19 33 39 30 45 -9 13 -11 12
-39 -22z"/>
<path d="M1873 678 c-6 -7 -16 -23 -22 -36 l-12 -22 32 19 c24 15 37 17 51 10
23 -12 24 -56 1 -81 -15 -17 -15 -18 -1 -13 9 4 21 19 26 33 17 49 -7 127 -28
92 -5 -9 -9 -9 -14 -1 -9 14 -21 14 -33 -1z"/>
<path d="M3688 674 c-3 -5 0 -25 8 -44 11 -30 12 -32 13 -10 0 31 -14 67 -21
54z"/>
<path d="M2910 660 c0 -9 15 -14 34 -11 4 1 14 -6 22 -16 12 -17 13 -17 14 -1
0 18 -28 38 -54 38 -9 0 -16 -4 -16 -10z"/>
<path d="M3833 653 c3 -10 10 -39 17 -66 8 -30 23 -56 42 -72 30 -25 72 -33
83 -15 4 6 -5 7 -23 4 -39 -8 -74 34 -91 109 -7 32 -17 57 -22 57 -6 0 -8 -8
-6 -17z"/>
<path d="M1020 619 c-12 -9 -12 -10 4 -5 10 4 25 1 34 -6 13 -11 14 -10 10 2
-6 19 -29 23 -48 9z"/>
<path d="M1214 617 c-4 -7 -3 -9 1 -4 5 4 20 -3 33 -15 24 -22 24 -22 14 -2
-14 27 -39 37 -48 21z"/>
<path d="M2450 613 c0 -5 11 -13 25 -20 27 -12 33 -5 13 15 -13 13 -38 16 -38
5z"/>
<path d="M2111 596 c-14 -17 -1 -28 19 -16 19 12 43 -16 37 -43 -6 -21 -6 -21
8 -3 20 27 19 31 -11 55 -32 25 -38 26 -53 7z"/>
<path d="M2637 590 c12 -5 24 -18 28 -30 4 -12 9 -20 11 -17 3 2 0 16 -5 31
-7 18 -18 26 -33 25 l-23 0 22 -9z"/>
<path d="M380 584 c0 -3 9 -17 20 -31 21 -27 27 -15 10 18 -10 18 -30 27 -30
13z"/>
<path d="M3385 580 c-3 -5 -1 -10 4 -10 6 0 11 5 11 10 0 6 -2 10 -4 10 -3 0
-8 -4 -11 -10z"/>
<path d="M4240 555 c7 -8 17 -15 22 -15 6 0 5 7 -2 15 -7 8 -17 15 -22 15 -6
0 -5 -7 2 -15z"/>
<path d="M4600 560 c0 -5 5 -10 10 -10 6 0 10 5 10 10 0 6 -4 10 -10 10 -5 0
-10 -4 -10 -10z"/>
<path d="M1636 536 c10 -8 21 -12 24 -10 5 6 -21 24 -34 24 -6 0 -1 -6 10 -14z"/>
<path d="M1970 530 c0 -5 7 -10 15 -10 8 0 15 5 15 10 0 6 -7 10 -15 10 -8 0
-15 -4 -15 -10z"/>
<path d="M2007 528 c-4 -13 45 -78 59 -78 5 0 -31 65 -46 83 -4 5 -10 2 -13
-5z"/>
<path d="M2830 530 c0 -5 5 -10 11 -10 5 0 7 5 4 10 -3 6 -8 10 -11 10 -2 0
-4 -4 -4 -10z"/>
<path d="M737 502 c17 -8 36 -24 41 -36 9 -18 11 -19 11 -3 2 35 -17 56 -51
55 l-32 -1 31 -15z"/>
<path d="M2400 500 c0 -5 8 -10 17 -10 9 0 25 -7 35 -17 22 -20 24 -1 2 21
-17 18 -54 22 -54 6z"/>
<path d="M2860 480 c0 -5 5 -10 10 -10 6 0 10 5 10 10 0 6 -4 10 -10 10 -5 0
-10 -4 -10 -10z"/>
<path d="M2656 465 c-9 -9 -16 -26 -16 -38 0 -19 1 -19 13 -5 6 9 21 18 32 20
17 3 20 -3 20 -34 0 -52 18 -29 19 24 1 39 -1 43 -25 46 -15 2 -34 -4 -43 -13z"/>
<path d="M1053 454 c-18 -9 -30 -20 -27 -25 7 -12 51 -11 59 1 3 6 13 10 22
10 13 0 13 -3 2 -16 -12 -14 -9 -16 21 -12 32 3 35 0 38 -24 2 -17 -4 -34 -17
-47 -17 -17 -18 -21 -5 -21 21 0 56 82 49 113 -5 19 -15 26 -43 31 -53 8 -63
7 -99 -10z"/>
<path d="M1650 455 c0 -2 10 -10 23 -16 20 -11 21 -11 8 4 -13 16 -31 23 -31
12z"/>
<path d="M4693 443 c-23 -8 -14 -18 17 -20 17 -1 30 2 30 6 0 11 -31 19 -47
14z"/>
<path d="M280 430 c20 -13 33 -13 25 0 -3 6 -14 10 -23 10 -15 0 -15 -2 -2
-10z"/>
<path d="M877 433 c-12 -12 -7 -23 7 -17 8 3 24 -4 35 -15 15 -15 21 -17 21
-7 0 8 -10 22 -22 30 -25 18 -32 19 -41 9z"/>
<path d="M1357 429 c-9 -6 -15 -15 -11 -20 4 -6 13 -4 25 7 11 9 19 12 19 6 0
-6 7 -9 15 -6 8 4 12 10 9 15 -7 12 -35 11 -57 -2z"/>
<path d="M3056 408 c-20 -28 -23 -61 -3 -34 21 28 61 17 68 -19 6 -28 7 -27 8
11 2 63 -41 88 -73 42z"/>
<path d="M3525 400 c-40 -18 -40 -18 -10 -19 34 -1 59 12 54 27 -3 7 -19 4
-44 -8z"/>
<path d="M1407 403 c-4 -3 -7 -11 -7 -17 0 -6 5 -5 12 2 6 6 9 14 7 17 -3 3
-9 2 -12 -2z"/>
<path d="M2173 384 c-24 -14 -43 -30 -43 -34 0 -13 81 12 87 26 3 8 9 14 15
14 5 0 7 -3 4 -8 -2 -4 7 -12 20 -19 28 -13 30 -6 8 25 -19 28 -39 27 -91 -4z"/>
<path d="M1770 385 c7 -9 15 -13 17 -11 7 7 -7 26 -19 26 -6 0 -6 -6 2 -15z"/>
<path d="M3767 378 c-8 -5 -6 -9 5 -13 22 -9 61 -3 65 10 3 11 -53 14 -70 3z"/>
<path d="M2068 373 c7 -3 16 -2 19 1 4 3 -2 6 -13 5 -11 0 -14 -3 -6 -6z"/>
<path d="M2846 371 c-3 -5 5 -11 19 -13 28 -6 34 6 9 16 -20 8 -22 8 -28 -3z"/>
<path d="M4690 346 c0 -2 7 -7 16 -10 8 -3 12 -2 9 4 -6 10 -25 14 -25 6z"/>
<path d="M2225 314 c-18 -16 -22 -22 -9 -15 18 9 53 42 43 41 -2 -1 -17 -12
-34 -26z"/>
<path d="M610 302 c-41 -15 -43 -17 -18 -20 15 -2 35 1 45 6 10 5 25 7 33 4
10 -3 3 -9 -20 -17 l-35 -12 53 -8 c46 -6 56 -12 73 -39 l19 -31 0 30 c0 23
-10 41 -38 68 -42 41 -48 42 -112 19z"/>
<path d="M2015 311 c-3 -6 3 -9 14 -8 11 0 17 5 15 9 -7 11 -22 10 -29 -1z"/>
<path d="M1154 299 c-4 -7 -1 -10 7 -7 8 3 22 1 31 -4 14 -6 16 -5 12 7 -7 18
-40 20 -50 4z"/>
<path d="M4503 288 c-13 -6 -23 -17 -23 -25 0 -7 -4 -13 -10 -13 -5 0 -10 -5
-10 -11 0 -8 4 -8 13 -1 8 7 31 6 70 -1 48 -9 60 -8 68 4 13 21 12 22 -22 42
-35 19 -54 20 -86 5z m57 -8 c0 -5 -5 -10 -11 -10 -5 0 -7 5 -4 10 3 6 8 10
11 10 2 0 4 -4 4 -10z"/>
<path d="M2495 280 c3 -5 8 -10 11 -10 2 0 4 5 4 10 0 6 -5 10 -11 10 -5 0 -7
-4 -4 -10z"/>
<path d="M1560 276 c0 -2 7 -9 15 -16 13 -11 14 -10 9 4 -5 14 -24 23 -24 12z"/>
<path d="M2370 276 c0 -2 7 -6 15 -10 8 -3 15 -1 15 4 0 6 -7 10 -15 10 -8 0
-15 -2 -15 -4z"/>
<path d="M1760 243 c0 -5 5 -15 10 -23 8 -12 10 -11 10 8 0 12 -4 22 -10 22
-5 0 -10 -3 -10 -7z"/>
<path d="M2845 240 c-3 -5 -2 -10 4 -10 5 0 13 5 16 10 3 6 2 10 -4 10 -5 0
-13 -4 -16 -10z"/>
<path d="M3850 246 c0 -2 9 -6 20 -9 11 -3 18 -1 14 4 -5 9 -34 13 -34 5z"/>
<path d="M4620 236 c0 -8 5 -18 10 -21 6 -3 10 1 10 9 0 8 -4 18 -10 21 -5 3
-10 -1 -10 -9z"/>
<path d="M138 229 c-26 -15 -23 -32 3 -19 11 6 25 9 32 6 9 -3 8 -5 -1 -5 -23
-2 -2 -21 23 -21 38 0 56 -11 71 -44 l13 -31 0 40 c1 22 -3 45 -7 52 -18 28
-100 42 -134 22z"/>
<path d="M4228 233 c7 -3 16 -2 19 1 4 3 -2 6 -13 5 -11 0 -14 -3 -6 -6z"/>
<path d="M4070 210 c0 -5 6 -10 14 -10 8 0 22 -7 30 -16 18 -18 21 -11 6 17
-11 20 -50 27 -50 9z"/>
<path d="M2160 190 c8 -5 20 -10 25 -10 6 0 3 5 -5 10 -8 5 -19 10 -25 10 -5
0 -3 -5 5 -10z"/>
<path d="M3261 184 c-12 -14 -12 -17 0 -25 23 -15 52 -11 45 6 -10 27 2 16 18
-17 9 -17 16 -41 16 -52 0 -16 2 -18 9 -7 11 17 -3 68 -25 92 -21 23 -44 24
-63 3z"/>
<path d="M3872 177 c-30 -32 -27 -40 7 -23 16 9 31 12 35 9 3 -4 6 -2 6 4 0 6
-6 16 -13 22 -11 8 -19 5 -35 -12z"/>
<path d="M1400 185 c0 -2 10 -10 23 -16 20 -11 21 -11 8 4 -13 16 -31 23 -31
12z"/>
<path d="M3000 170 c0 -5 7 -10 15 -10 8 0 15 5 15 10 0 6 -7 10 -15 10 -8 0
-15 -4 -15 -10z"/>
<path d="M2410 160 c0 -5 9 -10 20 -10 12 0 24 -10 30 -22 5 -13 9 -17 9 -10
2 24 -20 52 -39 52 -11 0 -20 -4 -20 -10z"/>
<path d="M2550 166 c0 -2 7 -7 16 -10 8 -3 12 -2 9 4 -6 10 -25 14 -25 6z"/>
<path d="M440 155 c0 -3 9 -14 20 -25 13 -13 20 -15 20 -7 0 7 -5 18 -12 25
-12 12 -28 16 -28 7z"/>
<path d="M2220 137 c-8 -7 -22 -21 -30 -31 -14 -18 -13 -18 10 -11 14 4 31 14
38 23 23 30 11 43 -18 19z"/>
<path d="M2602 142 c-6 -2 -12 -8 -12 -14 0 -6 6 -8 14 -5 7 3 19 0 25 -6 6
-6 11 -8 11 -3 0 14 -25 33 -38 28z"/>
<path d="M1569 115 c-1 -14 -2 -31 -3 -37 -1 -7 5 -12 13 -10 10 2 12 -7 9
-33 -5 -45 9 -46 17 -2 4 21 1 48 -9 70 -18 43 -25 47 -27 12z"/>
<path d="M2257 133 c-8 -7 2 -54 14 -68 5 -5 9 6 9 27 0 36 -11 54 -23 41z"/>
<path d="M5 121 c-14 -13 -2 -31 20 -31 17 0 28 -7 34 -22 l8 -23 7 22 c10 31
-8 58 -39 58 -14 1 -28 -1 -30 -4z"/>
<path d="M950 120 c-8 -5 -10 -10 -5 -10 6 -1 -1 -6 -14 -11 -19 -7 -21 -12
-11 -24 13 -16 40 -9 40 11 0 9 10 14 28 13 26 0 26 -1 5 -9 -31 -13 -30 -32
0 -21 13 5 36 7 53 4 l29 -5 -25 26 c-28 29 -77 42 -100 26z"/>
<path d="M1226 121 c-3 -4 12 -14 34 -21 22 -7 37 -16 35 -21 -3 -4 9 -12 27
-18 43 -15 45 -14 18 14 -13 14 -31 25 -40 25 -9 0 -25 7 -36 15 -22 17 -31
18 -38 6z"/>
<path d="M1539 111 c-21 -21 -42 -61 -36 -68 12 -11 46 19 52 48 8 37 5 41
-16 20z"/>
<path d="M1962 114 c-12 -8 -20 -20 -17 -25 8 -12 52 -12 60 1 3 6 12 10 18
10 7 0 6 -4 -3 -10 -13 -8 -12 -11 6 -16 12 -3 27 -15 33 -27 10 -19 11 -18 6
12 -10 65 -55 89 -103 55z"/>
<path d="M2340 120 c0 -5 5 -10 11 -10 5 0 7 5 4 10 -3 6 -8 10 -11 10 -2 0
-4 -4 -4 -10z"/>
<path d="M3569 94 c-13 -15 -11 -17 19 -12 17 2 32 1 32 -4 0 -4 5 -8 12 -8 6
0 3 9 -7 20 -22 24 -38 25 -56 4z"/>
<path d="M4100 83 c-13 -15 -12 -16 4 -10 10 4 20 7 22 7 2 0 4 5 4 10 0 15
-13 12 -30 -7z"/>
<path d="M4490 80 c0 -5 7 -10 16 -10 8 0 12 5 9 10 -3 6 -10 10 -16 10 -5 0
-9 -4 -9 -10z"/>
<path d="M4644 76 c-27 -20 -17 -25 44 -19 55 6 67 17 30 27 -35 9 -53 7 -74
-8z"/>
<path d="M3057 40 c-19 -23 -18 -24 18 -10 22 8 27 7 35 -13 8 -21 9 -21 9 4
1 16 -6 29 -15 33 -24 9 -28 8 -47 -14z"/>
<path d="M1017 23 c-10 -9 -9 -23 2 -23 5 0 11 7 15 15 5 15 -5 20 -17 8z"/>
<path d="M90 10 c0 -5 11 -10 25 -10 14 0 25 5 25 10 0 6 -11 10 -25 10 -14 0
-25 -4 -25 -10z"/>
<path d="M190 10 c0 -5 5 -10 10 -10 6 0 10 5 10 10 0 6 -4 10 -10 10 -5 0
-10 -4 -10 -10z"/>
<path d="M3910 10 c0 -5 5 -10 11 -10 5 0 7 5 4 10 -3 6 -8 10 -11 10 -2 0 -4
-4 -4 -10z"/>
<path d="M4220 10 c0 -5 14 -10 30 -10 17 0 30 5 30 10 0 6 -13 10 -30 10 -16
0 -30 -4 -30 -10z"/>
</g>
</svg>
